<svg width="379" height="365" viewBox="0 0 379 365" fill="none" xmlns="http://www.w3.org/2000/svg">
<path fill-rule="evenodd" clip-rule="evenodd" d="M173.981 43.3453C100.602 50.7866 43.4248 110.408 43.4248 182.855C43.4248 260.335 108.824 323.146 189.498 323.146C264.93 323.146 327.008 268.233 334.756 197.758C313.805 223.303 281.288 239.73 244.769 239.73C181.537 239.73 130.279 190.5 130.279 129.771C130.279 94.6967 147.384 63.4673 173.981 43.3453ZM19.7373 182.855C19.7373 92.8094 95.7416 19.8131 189.498 19.8131C200.814 19.8131 206.48 28.4772 207.45 35.3782C208.385 42.0168 205.829 50.4596 197.883 55.0706C171.538 70.3606 153.966 98.1007 153.966 129.771C153.966 177.935 194.621 216.98 244.769 216.98C277.745 216.98 306.628 200.104 322.547 174.801C327.348 167.169 336.139 164.715 343.051 165.613C350.236 166.545 359.258 171.986 359.258 182.855C359.258 272.901 283.254 345.896 189.498 345.896C95.7416 345.896 19.7373 272.901 19.7373 182.855Z" fill="white"/>
<g clip-path="url(#clip0_37_3)">
<path d="M262.084 99.1917L263.434 99.9087C273.92 105.481 279.163 108.268 280.618 113.127C282.073 117.987 279.172 123.023 273.37 133.094L272.623 134.39" stroke="white" stroke-width="3.77314" stroke-linecap="round"/>
<path d="M245.397 92.1794L245.976 122.695L246.555 153.21" stroke="white" stroke-width="3.77314" stroke-linecap="round"/>
<path d="M219.328 111L218.581 112.296C212.779 122.367 209.878 127.403 211.333 132.263C212.788 137.123 218.031 139.909 228.517 145.481L229.867 146.199" stroke="white" stroke-width="3.77314" stroke-linecap="round"/>
<path d="M200.221 80.3138C207.711 72.8411 217.287 67.1035 228.412 64.0308C262.146 54.7139 297.357 73.4255 307.058 105.825C316.759 138.223 297.276 172.041 263.542 181.358C229.808 190.675 194.597 171.963 184.896 139.564C181.697 128.879 181.672 118.04 184.285 107.976" stroke="#FFD500" stroke-width="6.96429" stroke-linecap="round"/>
</g>
<path d="M358.893 125.061L370.483 126.205" stroke="#FFD500" stroke-width="6.91679" stroke-linecap="round"/>
<path d="M266.49 3.45582L265.299 14.587" stroke="#FFD500" stroke-width="6.91679" stroke-linecap="round"/>
<path d="M344.948 44.147L339.928 48.0701" stroke="#FFD500" stroke-width="6.91679" stroke-linecap="round"/>
<defs>
<clipPath id="clip0_37_3">
<rect width="152.083" height="146.968" fill="white" transform="matrix(0.963912 -0.266221 0.286838 0.957979 151.601 72.5422)"/>
</clipPath>
</defs>
</svg>
